<svg xmlns="http://www.w3.org/2000/svg" width="1920" height="1080"><path d="M993,590L1023,483L889,503Z" fill="#76a9cf" stroke="#76a9cf" stroke-width="1.51"/><path d="M889,503L876,592L993,590Z" fill="#75a8cf" stroke="#75a8cf" stroke-width="1.51"/><path d="M1023,483L871,381L889,503Z" fill="#88b0d4" stroke="#88b0d4" stroke-width="1.51"/><path d="M736,469L796,635L876,592Z" fill="#81add1" stroke="#81add1" stroke-width="1.51"/><path d="M876,592L999,741L993,590Z" fill="#609fca" stroke="#609fca" stroke-width="1.51"/><path d="M736,469L876,592L889,503Z" fill="#85b0d3" stroke="#85b0d3" stroke-width="1.51"/><path d="M993,590L1172,501L1023,483Z" fill="#6ca4cd" stroke="#6ca4cd" stroke-width="1.51"/><path d="M1023,483L979,302L871,381Z" fill="#91b4d6" stroke="#91b4d6" stroke-width="1.51"/><path d="M993,590L1192,570L1172,501Z" fill="#609fc9" stroke="#609fc9" stroke-width="1.51"/><path d="M876,775L999,741L876,592Z" fill="#5c9bc7" stroke="#5c9bc7" stroke-width="1.51"/><path d="M1123,335L979,302L1023,483Z" fill="#8bb1d4" stroke="#8bb1d4" stroke-width="1.51"/><path d="M871,381L736,469L889,503Z" fill="#93b5d6" stroke="#93b5d6" stroke-width="1.51"/><path d="M780,348L736,469L871,381Z" fill="#a0bad9" stroke="#a0bad9" stroke-width="1.51"/><path d="M1170,759L1192,570L993,590Z" fill="#4d97c5" stroke="#4d97c5" stroke-width="1.51"/><path d="M1172,501L1123,335L1023,483Z" fill="#79a9cf" stroke="#79a9cf" stroke-width="1.51"/><path d="M926,228L780,348L871,381Z" fill="#a6bddb" stroke="#a6bddb" stroke-width="1.51"/><path d="M796,635L876,775L876,592Z" fill="#68a1cb" stroke="#68a1cb" stroke-width="1.51"/><path d="M661,592L789,735L796,635Z" fill="#76a7ce" stroke="#76a7ce" stroke-width="1.51"/><path d="M796,635L789,735L876,775Z" fill="#679dc9" stroke="#679dc9" stroke-width="1.51"/><path d="M979,302L926,228L871,381Z" fill="#a2bcda" stroke="#a2bcda" stroke-width="1.51"/><path d="M1069,226L926,228L979,302Z" fill="#a3bddb" stroke="#a3bddb" stroke-width="1.51"/><path d="M736,469L661,592L796,635Z" fill="#88b0d3" stroke="#88b0d3" stroke-width="1.51"/><path d="M641,479L661,592L736,469Z" fill="#97b6d7" stroke="#97b6d7" stroke-width="1.51"/><path d="M999,741L1170,759L993,590Z" fill="#4a95c3" stroke="#4a95c3" stroke-width="1.51"/><path d="M1129,831L1170,759L999,741Z" fill="#3c89bd" stroke="#3c89bd" stroke-width="1.51"/><path d="M1123,335L1069,226L979,302Z" fill="#98b6d7" stroke="#98b6d7" stroke-width="1.51"/><path d="M1172,501L1274,474L1123,335Z" fill="#70a4cd" stroke="#70a4cd" stroke-width="1.51"/><path d="M1123,335L1144,241L1069,226Z" fill="#96b5d6" stroke="#96b5d6" stroke-width="1.51"/><path d="M1192,570L1274,474L1172,501Z" fill="#5e9dc8" stroke="#5e9dc8" stroke-width="1.51"/><path d="M1274,582L1274,474L1192,570Z" fill="#5699c6" stroke="#5699c6" stroke-width="1.51"/><path d="M1170,759L1274,582L1192,570Z" fill="#4092c2" stroke="#4092c2" stroke-width="1.51"/><path d="M621,380L641,479L736,469Z" fill="#a5bcdb" stroke="#a5bcdb" stroke-width="1.51"/><path d="M1321,368L1144,241L1123,335Z" fill="#86add1" stroke="#86add1" stroke-width="1.51"/><path d="M1170,759L1287,768L1274,582Z" fill="#3089bd" stroke="#3089bd" stroke-width="1.51"/><path d="M1023,883L1129,831L999,741Z" fill="#4087bc" stroke="#4087bc" stroke-width="1.51"/><path d="M926,228L757,222L780,348Z" fill="#b2c3de" stroke="#b2c3de" stroke-width="1.51"/><path d="M780,348L621,380L736,469Z" fill="#a8bedb" stroke="#a8bedb" stroke-width="1.51"/><path d="M915,80L757,222L926,228Z" fill="#b7c8e1" stroke="#b7c8e1" stroke-width="1.51"/><path d="M876,775L1023,883L999,741Z" fill="#4d8cc0" stroke="#4d8cc0" stroke-width="1.51"/><path d="M873,908L1023,883L876,775Z" fill="#4f8aba" stroke="#4f8aba" stroke-width="1.51"/><path d="M647,240L621,380L780,348Z" fill="#b7c4e0" stroke="#b7c4e0" stroke-width="1.51"/><path d="M484,565L620,731L661,592Z" fill="#8bb0d3" stroke="#8bb0d3" stroke-width="1.51"/><path d="M789,735L752,840L876,775Z" fill="#6395c5" stroke="#6395c5" stroke-width="1.51"/><path d="M620,731L752,840L789,735Z" fill="#6e9bc8" stroke="#6e9bc8" stroke-width="1.51"/><path d="M1274,474L1321,368L1123,335Z" fill="#76a5cd" stroke="#76a5cd" stroke-width="1.51"/><path d="M1402,456L1321,368L1274,474Z" fill="#699bc8" stroke="#699bc8" stroke-width="1.51"/><path d="M752,840L873,908L876,775Z" fill="#5b8ebe" stroke="#5b8ebe" stroke-width="1.51"/><path d="M661,592L620,731L789,735Z" fill="#77a6ce" stroke="#77a6ce" stroke-width="1.51"/><path d="M484,565L661,592L641,479Z" fill="#99b7d7" stroke="#99b7d7" stroke-width="1.51"/><path d="M1129,831L1287,768L1170,759Z" fill="#2983ba" stroke="#2983ba" stroke-width="1.51"/><path d="M1274,582L1402,456L1274,474Z" fill="#5b97c5" stroke="#5b97c5" stroke-width="1.51"/><path d="M1326,892L1287,768L1129,831Z" fill="#207bb4" stroke="#207bb4" stroke-width="1.51"/><path d="M757,222L647,240L780,348Z" fill="#bac6e1" stroke="#bac6e1" stroke-width="1.51"/><path d="M1069,226L915,80L926,228Z" fill="#adc4de" stroke="#adc4de" stroke-width="1.51"/><path d="M757,222L645,40L647,240Z" fill="#c9d1e6" stroke="#c9d1e6" stroke-width="1.51"/><path d="M1053,44L915,80L1069,226Z" fill="#afc5e0" stroke="#afc5e0" stroke-width="1.51"/><path d="M1467,561L1402,456L1274,582Z" fill="#5191c2" stroke="#5191c2" stroke-width="1.51"/><path d="M506,347L501,471L621,380Z" fill="#b7c5df" stroke="#b7c5df" stroke-width="1.51"/><path d="M621,380L501,471L641,479Z" fill="#abbfdd" stroke="#abbfdd" stroke-width="1.51"/><path d="M873,908L980,1043L1023,883Z" fill="#4780ae" stroke="#4780ae" stroke-width="1.51"/><path d="M1023,883L1150,969L1129,831Z" fill="#357db0" stroke="#357db0" stroke-width="1.51"/><path d="M722,973L862,983L873,908Z" fill="#5884af" stroke="#5884af" stroke-width="1.51"/><path d="M722,973L873,908L752,840Z" fill="#5f8bb7" stroke="#5f8bb7" stroke-width="1.51"/><path d="M1131,65L1053,44L1069,226Z" fill="#a8c2de" stroke="#a8c2de" stroke-width="1.51"/><path d="M1321,368L1343,239L1144,241Z" fill="#87aad0" stroke="#87aad0" stroke-width="1.51"/><path d="M1387,239L1343,239L1321,368Z" fill="#84a4ce" stroke="#84a4ce" stroke-width="1.51"/><path d="M501,471L484,565L641,479Z" fill="#a5bddb" stroke="#a5bddb" stroke-width="1.51"/><path d="M980,1043L1150,969L1023,883Z" fill="#3a79a6" stroke="#3a79a6" stroke-width="1.51"/><path d="M647,240L506,347L621,380Z" fill="#bfc9e1" stroke="#bfc9e1" stroke-width="1.51"/><path d="M348,468L364,575L484,565Z" fill="#aac1dd" stroke="#aac1dd" stroke-width="1.51"/><path d="M1131,65L1069,226L1144,241Z" fill="#9fbcda" stroke="#9fbcda" stroke-width="1.51"/><path d="M1337,78L1131,65L1144,241Z" fill="#9cbbd9" stroke="#9cbbd9" stroke-width="1.51"/><path d="M620,731L589,864L752,840Z" fill="#7198c7" stroke="#7198c7" stroke-width="1.51"/><path d="M488,776L589,864L620,731Z" fill="#7b9eca" stroke="#7b9eca" stroke-width="1.51"/><path d="M1470,364L1387,239L1321,368Z" fill="#7b9ecb" stroke="#7b9ecb" stroke-width="1.51"/><path d="M1475,710L1467,561L1274,582Z" fill="#3a88bc" stroke="#3a88bc" stroke-width="1.51"/><path d="M1475,710L1274,582L1287,768Z" fill="#2a84bb" stroke="#2a84bb" stroke-width="1.51"/><path d="M589,864L722,973L752,840Z" fill="#6a8fbb" stroke="#6a8fbb" stroke-width="1.51"/><path d="M1470,364L1321,368L1402,456Z" fill="#6e99c8" stroke="#6e99c8" stroke-width="1.51"/><path d="M1343,239L1337,78L1144,241Z" fill="#93b1d4" stroke="#93b1d4" stroke-width="1.51"/><path d="M1255,980L1326,892L1129,831Z" fill="#1f76ab" stroke="#1f76ab" stroke-width="1.51"/><path d="M862,983L980,1043L873,908Z" fill="#4c7ea8" stroke="#4c7ea8" stroke-width="1.51"/><path d="M855,1125L980,1043L862,983Z" fill="#487499" stroke="#487499" stroke-width="1.51"/><path d="M915,80L801,28L757,222Z" fill="#c1cfe5" stroke="#c1cfe5" stroke-width="1.51"/><path d="M647,240L494,219L506,347Z" fill="#cacee5" stroke="#cacee5" stroke-width="1.51"/><path d="M857,-63L801,28L915,80Z" fill="#c5d3e7" stroke="#c5d3e7" stroke-width="1.51"/><path d="M1535,456L1470,364L1402,456Z" fill="#6592c3" stroke="#6592c3" stroke-width="1.51"/><path d="M484,565L488,776L620,731Z" fill="#87acd1" stroke="#87acd1" stroke-width="1.51"/><path d="M1149,1163L1255,980L1150,969Z" fill="#216993" stroke="#216993" stroke-width="1.51"/><path d="M1150,969L1255,980L1129,831Z" fill="#2677a9" stroke="#2677a9" stroke-width="1.51"/><path d="M1523,741L1475,710L1451,906Z" fill="#0d71ae" stroke="#0d71ae" stroke-width="1.51"/><path d="M1451,906L1475,710L1287,768Z" fill="#1174b2" stroke="#1174b2" stroke-width="1.51"/><path d="M1467,561L1535,456L1402,456Z" fill="#578ebf" stroke="#578ebf" stroke-width="1.51"/><path d="M535,107L494,219L647,240Z" fill="#d2d4e8" stroke="#d2d4e8" stroke-width="1.51"/><path d="M348,468L484,565L501,471Z" fill="#adc1dd" stroke="#adc1dd" stroke-width="1.51"/><path d="M792,1123L855,1125L862,983Z" fill="#4e7395" stroke="#4e7395" stroke-width="1.51"/><path d="M589,864L638,995L722,973Z" fill="#6b8db5" stroke="#6b8db5" stroke-width="1.51"/><path d="M520,903L638,995L589,864Z" fill="#7291ba" stroke="#7291ba" stroke-width="1.51"/><path d="M801,28L645,40L757,222Z" fill="#cad4e7" stroke="#cad4e7" stroke-width="1.51"/><path d="M1606,638L1535,456L1467,561Z" fill="#4886b8" stroke="#4886b8" stroke-width="1.51"/><path d="M1414,107L1343,239L1387,239Z" fill="#8da9d1" stroke="#8da9d1" stroke-width="1.51"/><path d="M488,776L520,903L589,864Z" fill="#7b9ac5" stroke="#7b9ac5" stroke-width="1.51"/><path d="M1414,107L1387,239L1557,190Z" fill="#8ca5ce" stroke="#8ca5ce" stroke-width="1.51"/><path d="M1414,107L1337,78L1343,239Z" fill="#94aed3" stroke="#94aed3" stroke-width="1.51"/><path d="M1015,-84L915,80L1053,44Z" fill="#b8cce4" stroke="#b8cce4" stroke-width="1.51"/><path d="M645,40L535,107L647,240Z" fill="#d4d7e9" stroke="#d4d7e9" stroke-width="1.51"/><path d="M1015,-84L857,-63L915,80Z" fill="#bfd1e6" stroke="#bfd1e6" stroke-width="1.51"/><path d="M801,28L727,-82L645,40Z" fill="#d2daeb" stroke="#d2daeb" stroke-width="1.51"/><path d="M1015,-84L1053,44L1207,-95Z" fill="#b0c8e1" stroke="#b0c8e1" stroke-width="1.51"/><path d="M484,565L364,575L488,776Z" fill="#95b5d6" stroke="#95b5d6" stroke-width="1.51"/><path d="M333,884L503,982L520,903Z" fill="#7d97bd" stroke="#7d97bd" stroke-width="1.51"/><path d="M348,468L501,471L506,347Z" fill="#b9c6e0" stroke="#b9c6e0" stroke-width="1.51"/><path d="M1475,710L1606,638L1467,561Z" fill="#3180b4" stroke="#3180b4" stroke-width="1.51"/><path d="M1451,906L1287,768L1326,892Z" fill="#1472ad" stroke="#1472ad" stroke-width="1.51"/><path d="M1207,-95L1053,44L1131,65Z" fill="#acc5df" stroke="#acc5df" stroke-width="1.51"/><path d="M980,1043L1149,1163L1150,969Z" fill="#2f6a92" stroke="#2f6a92" stroke-width="1.51"/><path d="M792,1123L862,983L722,973Z" fill="#567ba1" stroke="#567ba1" stroke-width="1.51"/><path d="M310,350L348,468L506,347Z" fill="#c3cce4" stroke="#c3cce4" stroke-width="1.51"/><path d="M391,216L506,347L494,219Z" fill="#d2d3e7" stroke="#d2d3e7" stroke-width="1.51"/><path d="M1337,78L1207,-95L1131,65Z" fill="#a3c0dc" stroke="#a3c0dc" stroke-width="1.51"/><path d="M1557,190L1387,239L1470,364Z" fill="#819ec9" stroke="#819ec9" stroke-width="1.51"/><path d="M1395,1038L1451,906L1326,892Z" fill="#0d68a0" stroke="#0d68a0" stroke-width="1.51"/><path d="M638,995L792,1123L722,973Z" fill="#5d7ea1" stroke="#5d7ea1" stroke-width="1.51"/><path d="M607,1128L792,1123L638,995Z" fill="#5d7898" stroke="#5d7898" stroke-width="1.51"/><path d="M535,107L391,216L494,219Z" fill="#dad9ea" stroke="#dad9ea" stroke-width="1.51"/><path d="M520,903L503,982L638,995Z" fill="#728eb4" stroke="#728eb4" stroke-width="1.51"/><path d="M333,884L520,903L488,776Z" fill="#829dc6" stroke="#829dc6" stroke-width="1.51"/><path d="M645,40L480,-50L535,107Z" fill="#dfdfee" stroke="#dfdfee" stroke-width="1.51"/><path d="M535,107L345,81L391,216Z" fill="#e1deed" stroke="#e1deed" stroke-width="1.51"/><path d="M857,-63L727,-82L801,28Z" fill="#ccd7e9" stroke="#ccd7e9" stroke-width="1.51"/><path d="M793,-233L727,-82L857,-63Z" fill="#ccd7e9" stroke="#ccd7e9" stroke-width="1.51"/><path d="M1523,741L1606,638L1475,710Z" fill="#2079af" stroke="#2079af" stroke-width="1.51"/><path d="M1535,456L1593,327L1470,364Z" fill="#6c92bf" stroke="#6c92bf" stroke-width="1.51"/><path d="M1680,644L1606,638L1679,735Z" fill="#2375a8" stroke="#2375a8" stroke-width="1.51"/><path d="M855,1125L987,1179L980,1043Z" fill="#416f92" stroke="#416f92" stroke-width="1.51"/><path d="M1255,980L1395,1038L1326,892Z" fill="#15699d" stroke="#15699d" stroke-width="1.51"/><path d="M869,1321L987,1179L855,1125Z" fill="#457093" stroke="#457093" stroke-width="1.51"/><path d="M1653,313L1593,327L1699,489Z" fill="#6a8db7" stroke="#6a8db7" stroke-width="1.51"/><path d="M793,-233L670,-97L727,-82Z" fill="#d2d9eb" stroke="#d2d9eb" stroke-width="1.51"/><path d="M1262,-102L1207,-95L1337,78Z" fill="#a2bddb" stroke="#a2bddb" stroke-width="1.51"/><path d="M987,1179L1149,1163L980,1043Z" fill="#356a8f" stroke="#356a8f" stroke-width="1.51"/><path d="M258,650L316,767L364,575Z" fill="#9ab8d8" stroke="#9ab8d8" stroke-width="1.51"/><path d="M391,216L310,350L506,347Z" fill="#cfd2e6" stroke="#cfd2e6" stroke-width="1.51"/><path d="M1451,906L1607,858L1523,741Z" fill="#056aa6" stroke="#056aa6" stroke-width="1.51"/><path d="M1340,1166L1395,1038L1255,980Z" fill="#125c8a" stroke="#125c8a" stroke-width="1.51"/><path d="M1593,327L1557,190L1470,364Z" fill="#7b98c2" stroke="#7b98c2" stroke-width="1.51"/><path d="M1406,-101L1262,-102L1337,78Z" fill="#9fb8d9" stroke="#9fb8d9" stroke-width="1.51"/><path d="M727,-82L670,-97L645,40Z" fill="#d6dbec" stroke="#d6dbec" stroke-width="1.51"/><path d="M846,-243L857,-63L1015,-84Z" fill="#c1d1e7" stroke="#c1d1e7" stroke-width="1.51"/><path d="M258,650L364,575L217,486Z" fill="#abc3de" stroke="#abc3de" stroke-width="1.51"/><path d="M364,575L316,767L488,776Z" fill="#90b0d4" stroke="#90b0d4" stroke-width="1.51"/><path d="M1163,-214L1043,-231L1015,-84Z" fill="#b1c9e2" stroke="#b1c9e2" stroke-width="1.51"/><path d="M1406,-101L1337,78L1414,107Z" fill="#9bb3d7" stroke="#9bb3d7" stroke-width="1.51"/><path d="M792,1123L785,1256L855,1125Z" fill="#507395" stroke="#507395" stroke-width="1.51"/><path d="M503,982L607,1128L638,995Z" fill="#6a82a3" stroke="#6a82a3" stroke-width="1.51"/><path d="M473,1143L607,1128L503,982Z" fill="#6b7e9b" stroke="#6b7e9b" stroke-width="1.51"/><path d="M217,486L364,575L348,468Z" fill="#b4c7e1" stroke="#b4c7e1" stroke-width="1.51"/><path d="M1699,489L1593,327L1535,456Z" fill="#628cb8" stroke="#628cb8" stroke-width="1.51"/><path d="M1593,327L1653,313L1557,190Z" fill="#7c96be" stroke="#7c96be" stroke-width="1.51"/><path d="M316,767L333,884L488,776Z" fill="#88a3ce" stroke="#88a3ce" stroke-width="1.51"/><path d="M266,866L333,884L316,767Z" fill="#8ba4cb" stroke="#8ba4cb" stroke-width="1.51"/><path d="M1606,638L1699,489L1535,456Z" fill="#4c84b3" stroke="#4c84b3" stroke-width="1.51"/><path d="M1651,892L1607,858L1584,1002Z" fill="#045f95" stroke="#045f95" stroke-width="1.51"/><path d="M1679,735L1606,638L1523,741Z" fill="#1e75aa" stroke="#1e75aa" stroke-width="1.51"/><path d="M1680,644L1699,489L1606,638Z" fill="#3c7dac" stroke="#3c7dac" stroke-width="1.51"/><path d="M258,650L250,745L316,767Z" fill="#96b3d6" stroke="#96b3d6" stroke-width="1.51"/><path d="M310,350L217,486L348,468Z" fill="#c2cde4" stroke="#c2cde4" stroke-width="1.51"/><path d="M258,650L66,732L250,745Z" fill="#9bb8d8" stroke="#9bb8d8" stroke-width="1.51"/><path d="M200,317L217,486L310,350Z" fill="#cdd3e8" stroke="#cdd3e8" stroke-width="1.51"/><path d="M1584,1002L1607,858L1451,906Z" fill="#046299" stroke="#046299" stroke-width="1.51"/><path d="M1149,1163L1340,1166L1255,980Z" fill="#195f89" stroke="#195f89" stroke-width="1.51"/><path d="M1290,1248L1340,1166L1149,1163Z" fill="#185e88" stroke="#185e88" stroke-width="1.51"/><path d="M1674,55L1540,51L1557,190Z" fill="#8ea4c7" stroke="#8ea4c7" stroke-width="1.51"/><path d="M1557,190L1540,51L1414,107Z" fill="#90a7cd" stroke="#90a7cd" stroke-width="1.51"/><path d="M670,-97L480,-50L645,40Z" fill="#dedfee" stroke="#dedfee" stroke-width="1.51"/><path d="M391,216L264,244L310,350Z" fill="#d9d8ea" stroke="#d9d8ea" stroke-width="1.51"/><path d="M1845,592L1812,465L1699,489Z" fill="#497aa2" stroke="#497aa2" stroke-width="1.51"/><path d="M1607,858L1679,735L1523,741Z" fill="#0f6ca6" stroke="#0f6ca6" stroke-width="1.51"/><path d="M345,81L264,244L391,216Z" fill="#e2dfee" stroke="#e2dfee" stroke-width="1.51"/><path d="M987,1179L1117,1281L1149,1163Z" fill="#30688e" stroke="#30688e" stroke-width="1.51"/><path d="M616,1253L785,1256L792,1123Z" fill="#587797" stroke="#587797" stroke-width="1.51"/><path d="M480,-50L345,81L535,107Z" fill="#e6e2ef" stroke="#e6e2ef" stroke-width="1.51"/><path d="M1163,-214L1015,-84L1207,-95Z" fill="#acc6df" stroke="#acc6df" stroke-width="1.51"/><path d="M483,-201L381,-78L480,-50Z" fill="#e9e5f1" stroke="#e9e5f1" stroke-width="1.51"/><path d="M1163,-214L1207,-95L1271,-191Z" fill="#a5c1dd" stroke="#a5c1dd" stroke-width="1.51"/><path d="M1271,-191L1207,-95L1262,-102Z" fill="#a3bfdc" stroke="#a3bfdc" stroke-width="1.51"/><path d="M1540,51L1406,-101L1414,107Z" fill="#98afd4" stroke="#98afd4" stroke-width="1.51"/><path d="M995,1303L1117,1281L987,1179Z" fill="#366a8f" stroke="#366a8f" stroke-width="1.51"/><path d="M333,884L353,1008L503,982Z" fill="#7f95b8" stroke="#7f95b8" stroke-width="1.51"/><path d="M250,745L266,866L316,767Z" fill="#90aad1" stroke="#90aad1" stroke-width="1.51"/><path d="M846,-243L793,-233L857,-63Z" fill="#c8d5e8" stroke="#c8d5e8" stroke-width="1.51"/><path d="M1043,-231L846,-243L1015,-84Z" fill="#bbcfe4" stroke="#bbcfe4" stroke-width="1.51"/><path d="M1340,1166L1421,1149L1395,1038Z" fill="#0b5785" stroke="#0b5785" stroke-width="1.51"/><path d="M1384,1255L1421,1149L1340,1166Z" fill="#0b5785" stroke="#0b5785" stroke-width="1.51"/><path d="M219,1026L353,1008L333,884Z" fill="#8397b7" stroke="#8397b7" stroke-width="1.51"/><path d="M607,1128L616,1253L792,1123Z" fill="#5e7998" stroke="#5e7998" stroke-width="1.51"/><path d="M1406,-101L1271,-191L1262,-102Z" fill="#a0bada" stroke="#a0bada" stroke-width="1.51"/><path d="M869,1321L995,1303L987,1179Z" fill="#406e91" stroke="#406e91" stroke-width="1.51"/><path d="M1607,858L1651,892L1679,735Z" fill="#04659e" stroke="#04659e" stroke-width="1.51"/><path d="M1584,1002L1451,906L1395,1038Z" fill="#045e94" stroke="#045e94" stroke-width="1.51"/><path d="M1559,1135L1584,1002L1395,1038Z" fill="#035282" stroke="#035282" stroke-width="1.51"/><path d="M90,294L200,317L109,163Z" fill="#e3e0ee" stroke="#e3e0ee" stroke-width="1.51"/><path d="M264,244L200,317L310,350Z" fill="#d8d8ea" stroke="#d8d8ea" stroke-width="1.51"/><path d="M353,1008L473,1143L503,982Z" fill="#7487a5" stroke="#7487a5" stroke-width="1.51"/><path d="M1117,1281L1290,1248L1149,1163Z" fill="#1f638b" stroke="#1f638b" stroke-width="1.51"/><path d="M785,1256L869,1321L855,1125Z" fill="#4d7294" stroke="#4d7294" stroke-width="1.51"/><path d="M616,1253L869,1321L785,1256Z" fill="#567696" stroke="#567696" stroke-width="1.51"/><path d="M473,1143L616,1253L607,1128Z" fill="#677d9a" stroke="#677d9a" stroke-width="1.51"/><path d="M1653,313L1737,230L1557,190Z" fill="#7e97bc" stroke="#7e97bc" stroke-width="1.51"/><path d="M1540,51L1603,-58L1406,-101Z" fill="#98add0" stroke="#98add0" stroke-width="1.51"/><path d="M1802,294L1737,230L1653,313Z" fill="#778fb2" stroke="#778fb2" stroke-width="1.51"/><path d="M1812,465L1653,313L1699,489Z" fill="#5f85ae" stroke="#5f85ae" stroke-width="1.51"/><path d="M1845,592L1699,489L1680,644Z" fill="#3d78a4" stroke="#3d78a4" stroke-width="1.51"/><path d="M1651,892L1787,784L1679,735Z" fill="#07639c" stroke="#07639c" stroke-width="1.51"/><path d="M1584,1002L1666,963L1651,892Z" fill="#045b8f" stroke="#045b8f" stroke-width="1.51"/><path d="M1652,1175L1666,963L1584,1002Z" fill="#034f7c" stroke="#034f7c" stroke-width="1.51"/><path d="M345,81L206,52L264,244Z" fill="#eae6f1" stroke="#eae6f1" stroke-width="1.51"/><path d="M480,-50L381,-78L345,81Z" fill="#ece7f2" stroke="#ece7f2" stroke-width="1.51"/><path d="M483,-201L480,-50L670,-97Z" fill="#e2e1ef" stroke="#e2e1ef" stroke-width="1.51"/><path d="M793,-233L621,-245L670,-97Z" fill="#d5dbeb" stroke="#d5dbeb" stroke-width="1.51"/><path d="M846,-243L621,-245L793,-233Z" fill="#cfd8ea" stroke="#cfd8ea" stroke-width="1.51"/><path d="M1421,1149L1559,1135L1395,1038Z" fill="#035281" stroke="#035281" stroke-width="1.51"/><path d="M1290,1248L1384,1255L1340,1166Z" fill="#105986" stroke="#105986" stroke-width="1.51"/><path d="M1117,1281L1384,1255L1290,1248Z" fill="#175e88" stroke="#175e88" stroke-width="1.51"/><path d="M1717,1291L1384,1255L1117,1281Z" fill="#085584" stroke="#085584" stroke-width="1.51"/><path d="M1600,1243L1384,1255L1717,1291Z" fill="#034d7a" stroke="#034d7a" stroke-width="1.51"/><path d="M1737,230L1674,55L1557,190Z" fill="#879dbf" stroke="#879dbf" stroke-width="1.51"/><path d="M1406,-101L1388,-236L1271,-191Z" fill="#9eb7d9" stroke="#9eb7d9" stroke-width="1.51"/><path d="M1787,784L1680,644L1679,735Z" fill="#1a6da0" stroke="#1a6da0" stroke-width="1.51"/><path d="M1600,1243L1559,1135L1421,1149Z" fill="#034f7c" stroke="#034f7c" stroke-width="1.51"/><path d="M353,1008L348,1127L473,1143Z" fill="#74849e" stroke="#74849e" stroke-width="1.51"/><path d="M473,1143L523,1295L616,1253Z" fill="#6a7e9b" stroke="#6a7e9b" stroke-width="1.51"/><path d="M219,1026L348,1127L353,1008Z" fill="#7b8ba6" stroke="#7b8ba6" stroke-width="1.51"/><path d="M1674,55L1603,-58L1540,51Z" fill="#94a8c8" stroke="#94a8c8" stroke-width="1.51"/><path d="M1855,892L1787,784L1651,892Z" fill="#045b8f" stroke="#045b8f" stroke-width="1.51"/><path d="M1855,892L1651,892L1666,963Z" fill="#04598b" stroke="#04598b" stroke-width="1.51"/><path d="M621,-245L483,-201L670,-97Z" fill="#dedfee" stroke="#dedfee" stroke-width="1.51"/><path d="M1607,-227L1388,-236L1406,-101Z" fill="#9aafd4" stroke="#9aafd4" stroke-width="1.51"/><path d="M1271,-191L1388,-236L1163,-214Z" fill="#a2bddb" stroke="#a2bddb" stroke-width="1.51"/><path d="M1163,-214L1388,-236L1043,-231Z" fill="#a6c2de" stroke="#a6c2de" stroke-width="1.51"/><path d="M1043,-231L1388,-236L846,-243Z" fill="#b0c8e1" stroke="#b0c8e1" stroke-width="1.51"/><path d="M1812,465L1802,294L1653,313Z" fill="#6987ac" stroke="#6987ac" stroke-width="1.51"/><path d="M1737,230L1823,202L1674,55Z" fill="#8297b6" stroke="#8297b6" stroke-width="1.51"/><path d="M1938,233L1823,202L1802,294Z" fill="#7587a5" stroke="#7587a5" stroke-width="1.51"/><path d="M1787,784L1845,592L1680,644Z" fill="#206e9b" stroke="#206e9b" stroke-width="1.51"/><path d="M385,1297L523,1295L473,1143Z" fill="#70819d" stroke="#70819d" stroke-width="1.51"/><path d="M616,1253L523,1295L869,1321Z" fill="#5e7998" stroke="#5e7998" stroke-width="1.51"/><path d="M257,-69L206,52L345,81Z" fill="#f2ecf5" stroke="#f2ecf5" stroke-width="1.51"/><path d="M257,-69L345,81L381,-78Z" fill="#f0ebf4" stroke="#f0ebf4" stroke-width="1.51"/><path d="M348,1127L385,1297L473,1143Z" fill="#73839e" stroke="#73839e" stroke-width="1.51"/><path d="M266,866L219,1026L333,884Z" fill="#889ec0" stroke="#889ec0" stroke-width="1.51"/><path d="M124,985L219,1026L266,866Z" fill="#899cbc" stroke="#899cbc" stroke-width="1.51"/><path d="M58,851L266,866L250,745Z" fill="#92aad1" stroke="#92aad1" stroke-width="1.51"/><path d="M50,560L258,650L217,486Z" fill="#b1c7e0" stroke="#b1c7e0" stroke-width="1.51"/><path d="M200,317L45,438L217,486Z" fill="#cbd4e8" stroke="#cbd4e8" stroke-width="1.51"/><path d="M109,163L200,317L264,244Z" fill="#e3e0ee" stroke="#e3e0ee" stroke-width="1.51"/><path d="M45,438L50,560L217,486Z" fill="#c0d0e5" stroke="#c0d0e5" stroke-width="1.51"/><path d="M50,560L66,732L258,650Z" fill="#a5c1dd" stroke="#a5c1dd" stroke-width="1.51"/><path d="M90,294L45,438L200,317Z" fill="#d7daec" stroke="#d7daec" stroke-width="1.51"/><path d="M206,52L109,163L264,244Z" fill="#ece7f2" stroke="#ece7f2" stroke-width="1.51"/><path d="M341,-157L257,-69L381,-78Z" fill="#f0ebf4" stroke="#f0ebf4" stroke-width="1.51"/><path d="M210,-198L341,-157L483,-201Z" fill="#efeaf4" stroke="#efeaf4" stroke-width="1.51"/><path d="M483,-201L341,-157L381,-78Z" fill="#ece7f2" stroke="#ece7f2" stroke-width="1.51"/><path d="M1802,294L1823,202L1737,230Z" fill="#788dad" stroke="#788dad" stroke-width="1.51"/><path d="M1674,55L1685,-112L1603,-58Z" fill="#93a6c5" stroke="#93a6c5" stroke-width="1.51"/><path d="M1934,325L1802,294L1812,465Z" fill="#647fa1" stroke="#647fa1" stroke-width="1.51"/><path d="M128,80L109,163L206,52Z" fill="#f2ecf5" stroke="#f2ecf5" stroke-width="1.51"/><path d="M-60,341L-8,436L45,438Z" fill="#d3daeb" stroke="#d3daeb" stroke-width="1.51"/><path d="M125,-48L128,80L206,52Z" fill="#f7f0f7" stroke="#f7f0f7" stroke-width="1.51"/><path d="M-8,436L50,560L45,438Z" fill="#c6d3e8" stroke="#c6d3e8" stroke-width="1.51"/><path d="M1559,1135L1652,1175L1584,1002Z" fill="#034c78" stroke="#034c78" stroke-width="1.51"/><path d="M1600,1243L1652,1175L1559,1135Z" fill="#034c77" stroke="#034c77" stroke-width="1.51"/><path d="M176,1262L385,1297L348,1127Z" fill="#7987a0" stroke="#7987a0" stroke-width="1.51"/><path d="M58,851L124,985L266,866Z" fill="#8fa4c6" stroke="#8fa4c6" stroke-width="1.51"/><path d="M66,732L58,851L250,745Z" fill="#98b1d5" stroke="#98b1d5" stroke-width="1.51"/><path d="M-11,963L58,851L-52,873Z" fill="#95a9ca" stroke="#95a9ca" stroke-width="1.51"/><path d="M-6,589L66,732L50,560Z" fill="#acc6df" stroke="#acc6df" stroke-width="1.51"/><path d="M1384,1255L1600,1243L1421,1149Z" fill="#035281" stroke="#035281" stroke-width="1.51"/><path d="M1717,1291L1117,1281L995,1303Z" fill="#165e88" stroke="#165e88" stroke-width="1.51"/><path d="M1603,-58L1607,-227L1406,-101Z" fill="#97acce" stroke="#97acce" stroke-width="1.51"/><path d="M1820,-102L1685,-112L1674,55Z" fill="#90a1bd" stroke="#90a1bd" stroke-width="1.51"/><path d="M523,1295L385,1297L869,1321Z" fill="#657c9a" stroke="#657c9a" stroke-width="1.51"/><path d="M175,1137L348,1127L219,1026Z" fill="#7c8aa2" stroke="#7c8aa2" stroke-width="1.51"/><path d="M1787,784L1944,785L1845,592Z" fill="#17618f" stroke="#17618f" stroke-width="1.51"/><path d="M1848,1000L1855,892L1666,963Z" fill="#03517f" stroke="#03517f" stroke-width="1.51"/><path d="M45,438L90,294L-60,341Z" fill="#d9dcec" stroke="#d9dcec" stroke-width="1.51"/><path d="M-8,436L-6,589L50,560Z" fill="#bed0e5" stroke="#bed0e5" stroke-width="1.51"/><path d="M1845,592L1929,450L1812,465Z" fill="#497599" stroke="#497599" stroke-width="1.51"/><path d="M1985,652L1929,450L1845,592Z" fill="#396b90" stroke="#396b90" stroke-width="1.51"/><path d="M-60,341L90,294L-76,239Z" fill="#e4e2ef" stroke="#e4e2ef" stroke-width="1.51"/><path d="M1823,202L1829,51L1674,55Z" fill="#8697b4" stroke="#8697b4" stroke-width="1.51"/><path d="M1938,233L1829,51L1823,202Z" fill="#7c8da8" stroke="#7c8da8" stroke-width="1.51"/><path d="M1685,-112L1607,-227L1603,-58Z" fill="#94a7c7" stroke="#94a7c7" stroke-width="1.51"/><path d="M1705,-168L1607,-227L1685,-112Z" fill="#93a5c4" stroke="#93a5c4" stroke-width="1.51"/><path d="M1929,450L1934,325L1812,465Z" fill="#59799a" stroke="#59799a" stroke-width="1.51"/><path d="M128,1115L175,1137L219,1026Z" fill="#7f8ca3" stroke="#7f8ca3" stroke-width="1.51"/><path d="M128,1115L219,1026L124,985Z" fill="#8392ab" stroke="#8392ab" stroke-width="1.51"/><path d="M1855,892L1944,785L1787,784Z" fill="#035688" stroke="#035688" stroke-width="1.51"/><path d="M1796,1153L1848,1000L1666,963Z" fill="#034770" stroke="#034770" stroke-width="1.51"/><path d="M1796,1153L1666,963L1652,1175Z" fill="#03476f" stroke="#03476f" stroke-width="1.51"/><path d="M-76,239L90,294L109,163Z" fill="#eae5f1" stroke="#eae5f1" stroke-width="1.51"/><path d="M257,-69L125,-48L206,52Z" fill="#f7f0f7" stroke="#f7f0f7" stroke-width="1.51"/><path d="M210,-198L125,-48L257,-69Z" fill="#f7f0f7" stroke="#f7f0f7" stroke-width="1.51"/><path d="M1820,-102L1705,-168L1685,-112Z" fill="#8fa0bc" stroke="#8fa0bc" stroke-width="1.51"/><path d="M1969,863L1944,785L1855,892Z" fill="#03507e" stroke="#03507e" stroke-width="1.51"/><path d="M1929,450L2065,431L1934,325Z" fill="#5a7797" stroke="#5a7797" stroke-width="1.51"/><path d="M1829,51L1820,-102L1674,55Z" fill="#8d9db8" stroke="#8d9db8" stroke-width="1.51"/><path d="M1934,325L1938,233L1802,294Z" fill="#6e829f" stroke="#6e829f" stroke-width="1.51"/><path d="M2100,349L1938,233L1934,325Z" fill="#6a7e9b" stroke="#6a7e9b" stroke-width="1.51"/><path d="M175,1137L176,1262L348,1127Z" fill="#7d8aa2" stroke="#7d8aa2" stroke-width="1.51"/><path d="M-11,963L128,1115L124,985Z" fill="#8898b1" stroke="#8898b1" stroke-width="1.51"/><path d="M1944,785L1985,652L1845,592Z" fill="#1c628a" stroke="#1c628a" stroke-width="1.51"/><path d="M-217,491L-188,636L-6,589Z" fill="#b6cce3" stroke="#b6cce3" stroke-width="1.51"/><path d="M-76,239L109,163L-39,63Z" fill="#f3edf5" stroke="#f3edf5" stroke-width="1.51"/><path d="M621,-245L210,-198L483,-201Z" fill="#eae6f1" stroke="#eae6f1" stroke-width="1.51"/><path d="M341,-157L210,-198L257,-69Z" fill="#f4edf6" stroke="#f4edf6" stroke-width="1.51"/><path d="M1717,1291L1796,1153L1652,1175Z" fill="#03466d" stroke="#03466d" stroke-width="1.51"/><path d="M1929,1029L1969,863L1855,892Z" fill="#034a74" stroke="#034a74" stroke-width="1.51"/><path d="M1705,-168L1832,-222L1607,-227Z" fill="#91a2bf" stroke="#91a2bf" stroke-width="1.51"/><path d="M1928,-76L1820,-102L1829,51Z" fill="#8996ad" stroke="#8996ad" stroke-width="1.51"/><path d="M2085,784L2071,603L1985,652Z" fill="#1c628a" stroke="#1c628a" stroke-width="1.51"/><path d="M1929,1029L1855,892L1848,1000Z" fill="#034871" stroke="#034871" stroke-width="1.51"/><path d="M58,851L66,732L-87,767Z" fill="#9cb4d7" stroke="#9cb4d7" stroke-width="1.51"/><path d="M-52,873L58,851L-87,767Z" fill="#99afd3" stroke="#99afd3" stroke-width="1.51"/><path d="M58,851L-11,963L124,985Z" fill="#91a4c4" stroke="#91a4c4" stroke-width="1.51"/><path d="M-87,767L66,732L-6,589Z" fill="#a4c0dd" stroke="#a4c0dd" stroke-width="1.51"/><path d="M-188,636L-87,767L-6,589Z" fill="#a7c3de" stroke="#a7c3de" stroke-width="1.51"/><path d="M-39,63L109,163L128,80Z" fill="#f5eff6" stroke="#f5eff6" stroke-width="1.51"/><path d="M-39,63L128,80L125,-48Z" fill="#faf2f8" stroke="#faf2f8" stroke-width="1.51"/><path d="M-6,589L-8,436L-217,491Z" fill="#c2d2e7" stroke="#c2d2e7" stroke-width="1.51"/><path d="M70,1275L176,1262L128,1115Z" fill="#818ea4" stroke="#818ea4" stroke-width="1.51"/><path d="M128,1115L176,1262L175,1137Z" fill="#7f8ca3" stroke="#7f8ca3" stroke-width="1.51"/><path d="M1796,1153L1929,1029L1848,1000Z" fill="#023f62" stroke="#023f62" stroke-width="1.51"/><path d="M1600,1243L1717,1291L1652,1175Z" fill="#034a73" stroke="#034a73" stroke-width="1.51"/><path d="M1815,1311L1717,1291L995,1303Z" fill="#03507e" stroke="#03507e" stroke-width="1.51"/><path d="M1988,1173L1929,1029L1796,1153Z" fill="#023959" stroke="#023959" stroke-width="1.51"/><path d="M-27,-71L-39,63L125,-48Z" fill="#fef6fa" stroke="#fef6fa" stroke-width="1.51"/><path d="M2071,603L2065,431L1929,450Z" fill="#497193" stroke="#497193" stroke-width="1.51"/><path d="M1938,233L1995,65L1829,51Z" fill="#7e8ba2" stroke="#7e8ba2" stroke-width="1.51"/><path d="M2071,603L1929,450L1985,652Z" fill="#396b90" stroke="#396b90" stroke-width="1.51"/><path d="M2085,784L1944,785L1969,863Z" fill="#035383" stroke="#035383" stroke-width="1.51"/><path d="M2085,784L1985,652L1944,785Z" fill="#135b86" stroke="#135b86" stroke-width="1.51"/><path d="M2078,83L1995,65L1938,233Z" fill="#7d8ba2" stroke="#7d8ba2" stroke-width="1.51"/><path d="M1995,65L1928,-76L1829,51Z" fill="#8590a6" stroke="#8590a6" stroke-width="1.51"/><path d="M1820,-102L1832,-222L1705,-168Z" fill="#8d9cb6" stroke="#8d9cb6" stroke-width="1.51"/><path d="M210,-198L78,-208L125,-48Z" fill="#f9f2f8" stroke="#f9f2f8" stroke-width="1.51"/><path d="M621,-245L78,-208L210,-198Z" fill="#f2ecf5" stroke="#f2ecf5" stroke-width="1.51"/><path d="M1928,-76L1832,-222L1820,-102Z" fill="#8996ad" stroke="#8996ad" stroke-width="1.51"/><path d="M1607,-227L1832,-222L1388,-236Z" fill="#95a8c8" stroke="#95a8c8" stroke-width="1.51"/><path d="M-17,-162L-27,-71L125,-48Z" fill="#fef6fa" stroke="#fef6fa" stroke-width="1.51"/><path d="M-39,63L-159,178L-76,239Z" fill="#f3edf5" stroke="#f3edf5" stroke-width="1.51"/><path d="M2065,431L2100,349L1934,325Z" fill="#607998" stroke="#607998" stroke-width="1.51"/><path d="M2071,603L2100,349L2065,431Z" fill="#4f7395" stroke="#4f7395" stroke-width="1.51"/><path d="M-87,767L-164,834L-52,873Z" fill="#9ab0d3" stroke="#9ab0d3" stroke-width="1.51"/><path d="M-56,1179L128,1115L-11,963Z" fill="#8491a6" stroke="#8491a6" stroke-width="1.51"/><path d="M-217,491L-8,436L-60,341Z" fill="#d0d8ea" stroke="#d0d8ea" stroke-width="1.51"/><path d="M-229,352L-60,341L-76,239Z" fill="#e1e1ef" stroke="#e1e1ef" stroke-width="1.51"/><path d="M2113,838L2085,784L1969,863Z" fill="#035280" stroke="#035280" stroke-width="1.51"/><path d="M2071,603L2113,838L2100,349Z" fill="#32698e" stroke="#32698e" stroke-width="1.51"/><path d="M1717,1291L1815,1311L1796,1153Z" fill="#024267" stroke="#024267" stroke-width="1.51"/><path d="M2074,990L2113,838L1969,863Z" fill="#034d78" stroke="#034d78" stroke-width="1.51"/><path d="M869,1321L1815,1311L995,1303Z" fill="#1b6089" stroke="#1b6089" stroke-width="1.51"/><path d="M-56,1179L70,1275L128,1115Z" fill="#8490a5" stroke="#8490a5" stroke-width="1.51"/><path d="M176,1262L70,1275L385,1297Z" fill="#7d8ba2" stroke="#7d8ba2" stroke-width="1.51"/><path d="M-211,1053L-11,963L-52,873Z" fill="#91a2bf" stroke="#91a2bf" stroke-width="1.51"/><path d="M-196,698L-164,834L-87,767Z" fill="#9eb6d8" stroke="#9eb6d8" stroke-width="1.51"/><path d="M-188,636L-196,698L-87,767Z" fill="#a3bfdc" stroke="#a3bfdc" stroke-width="1.51"/><path d="M-210,74L-159,178L-39,63Z" fill="#f7f1f7" stroke="#f7f1f7" stroke-width="1.51"/><path d="M-188,636L-217,491L-196,698Z" fill="#b0c9e1" stroke="#b0c9e1" stroke-width="1.51"/><path d="M-229,352L-217,491L-60,341Z" fill="#d4dbeb" stroke="#d4dbeb" stroke-width="1.51"/><path d="M-218,-61L-210,74L-39,63Z" fill="#fdf5fa" stroke="#fdf5fa" stroke-width="1.51"/><path d="M78,-208L-17,-162L125,-48Z" fill="#fcf5fa" stroke="#fcf5fa" stroke-width="1.51"/><path d="M2074,990L1969,863L1929,1029Z" fill="#03476f" stroke="#03476f" stroke-width="1.51"/><path d="M2085,784L2113,838L2071,603Z" fill="#135b86" stroke="#135b86" stroke-width="1.51"/><path d="M1928,-76L1985,-162L1832,-222Z" fill="#8692a7" stroke="#8692a7" stroke-width="1.51"/><path d="M2139,-78L1985,-162L1928,-76Z" fill="#8591a6" stroke="#8591a6" stroke-width="1.51"/><path d="M2143,182L2078,83L1938,233Z" fill="#7a88a0" stroke="#7a88a0" stroke-width="1.51"/><path d="M-159,178L-229,352L-76,239Z" fill="#e9e5f1" stroke="#e9e5f1" stroke-width="1.51"/><path d="M1988,1173L2074,990L1929,1029Z" fill="#023a5b" stroke="#023a5b" stroke-width="1.51"/><path d="M-211,1053L-56,1179L-11,963Z" fill="#8794aa" stroke="#8794aa" stroke-width="1.51"/><path d="M1957,1260L1988,1173L1796,1153Z" fill="#023858" stroke="#023858" stroke-width="1.51"/><path d="M2113,838L2143,182L2100,349Z" fill="#507395" stroke="#507395" stroke-width="1.51"/><path d="M2100,349L2143,182L1938,233Z" fill="#70819d" stroke="#70819d" stroke-width="1.51"/><path d="M2139,-78L1995,65L2078,83Z" fill="#8490a5" stroke="#8490a5" stroke-width="1.51"/><path d="M2139,-78L1928,-76L1995,65Z" fill="#8591a6" stroke="#8591a6" stroke-width="1.51"/><path d="M1815,1311L1957,1260L1796,1153Z" fill="#023c5f" stroke="#023c5f" stroke-width="1.51"/><path d="M1988,1173L2105,1184L2074,990Z" fill="#023858" stroke="#023858" stroke-width="1.51"/><path d="M-218,-61L-39,63L-27,-71Z" fill="#fff7fb" stroke="#fff7fb" stroke-width="1.51"/><path d="M-159,178L-210,74L-229,352Z" fill="#eee9f3" stroke="#eee9f3" stroke-width="1.51"/><path d="M-56,1179L-73,1275L70,1275Z" fill="#8591a6" stroke="#8591a6" stroke-width="1.51"/><path d="M70,1275L-73,1275L385,1297Z" fill="#818da4" stroke="#818da4" stroke-width="1.51"/><path d="M385,1297L-73,1275L869,1321Z" fill="#74849e" stroke="#74849e" stroke-width="1.51"/><path d="M-191,1238L-73,1275L-56,1179Z" fill="#8591a6" stroke="#8591a6" stroke-width="1.51"/><path d="M-211,1053L-52,873L-164,834Z" fill="#94a7c6" stroke="#94a7c6" stroke-width="1.51"/><path d="M-229,352L-211,1053L-217,491Z" fill="#adc6e0" stroke="#adc6e0" stroke-width="1.51"/><path d="M-217,491L-211,1053L-196,698Z" fill="#9fb9d9" stroke="#9fb9d9" stroke-width="1.51"/><path d="M-196,698L-211,1053L-164,834Z" fill="#97acce" stroke="#97acce" stroke-width="1.51"/><path d="M-211,1053L-208,1107L-56,1179Z" fill="#8591a6" stroke="#8591a6" stroke-width="1.51"/><path d="M-17,-162L-218,-61L-27,-71Z" fill="#fff7fb" stroke="#fff7fb" stroke-width="1.51"/><path d="M-210,74L-218,-61L-229,352Z" fill="#f6f0f7" stroke="#f6f0f7" stroke-width="1.51"/><path d="M2113,838L2122,1307L2143,182Z" fill="#0c5785" stroke="#0c5785" stroke-width="1.51"/><path d="M2074,990L2105,1184L2113,838Z" fill="#024166" stroke="#024166" stroke-width="1.51"/><path d="M1957,1260L2105,1184L1988,1173Z" fill="#023858" stroke="#023858" stroke-width="1.51"/><path d="M2143,182L2139,-78L2078,83Z" fill="#818ea4" stroke="#818ea4" stroke-width="1.51"/><path d="M2139,-78L2114,-170L1985,-162Z" fill="#8591a6" stroke="#8591a6" stroke-width="1.51"/><path d="M1985,-162L2114,-170L1832,-222Z" fill="#8591a6" stroke="#8591a6" stroke-width="1.51"/><path d="M-208,1107L-191,1238L-56,1179Z" fill="#8591a6" stroke="#8591a6" stroke-width="1.51"/><path d="M-17,-162L-184,-229L-218,-61Z" fill="#fff7fb" stroke="#fff7fb" stroke-width="1.51"/><path d="M78,-208L-184,-229L-17,-162Z" fill="#fff7fb" stroke="#fff7fb" stroke-width="1.51"/><path d="M621,-245L-184,-229L78,-208Z" fill="#f8f1f8" stroke="#f8f1f8" stroke-width="1.51"/><path d="M1957,1260L2122,1307L2105,1184Z" fill="#023858" stroke="#023858" stroke-width="1.51"/><path d="M2105,1184L2122,1307L2113,838Z" fill="#023858" stroke="#023858" stroke-width="1.51"/><path d="M1815,1311L2122,1307L1957,1260Z" fill="#023858" stroke="#023858" stroke-width="1.51"/></svg>